<svg width="37" height="37" viewBox="0 0 37 37" fill="none" xmlns="http://www.w3.org/2000/svg">
<path fill-rule="evenodd" clip-rule="evenodd" d="M18.5 0C8.28245 0 0 8.28245 0 18.5C0 28.7157 8.28245 37 18.5 37C28.7176 37 37 28.7157 37 18.5C37 8.28245 28.7176 0 18.5 0Z" fill="white"/>
<path fill-rule="evenodd" clip-rule="evenodd" d="M29.151 13.3315L19.1355 26.2808C18.7234 26.8139 18.0853 27.129 17.4056 27.1333H17.3903C16.7172 27.1333 16.0814 26.8269 15.6648 26.3046L10.3326 19.599C9.5871 18.6623 9.75373 17.3048 10.7075 16.571C11.659 15.8351 13.0403 15.9991 13.7858 16.9401L17.3662 21.4421L25.6627 10.7179C26.395 9.77048 27.7697 9.58487 28.7366 10.3079C29.6991 11.0309 29.8855 12.3841 29.151 13.3315Z" fill="#138FCE"/>
</svg>
