<svg width="15" height="15" viewBox="0 0 15 15" fill="none" xmlns="http://www.w3.org/2000/svg">
<path fill-rule="evenodd" clip-rule="evenodd" d="M7.5 0C3.35775 0 0 3.35775 0 7.5C0 11.6415 3.35775 15 7.5 15C11.6423 15 15 11.6415 15 7.5C15 3.35775 11.6423 0 7.5 0Z" fill="#838383"/>
<path fill-rule="evenodd" clip-rule="evenodd" d="M7.5 2C4.46235 2 2 4.46235 2 7.5C2 10.5371 4.46235 13 7.5 13C10.5377 13 13 10.5371 13 7.5C13 4.46235 10.5377 2 7.5 2Z" fill="white"/>
<path fill-rule="evenodd" clip-rule="evenodd" d="M11.818 5.40468L7.75764 10.6544C7.59054 10.8705 7.33188 10.9983 7.05633 11H7.05011C6.77723 11 6.51946 10.8758 6.35057 10.664L4.18886 7.94554C3.88665 7.56581 3.9542 7.01546 4.34086 6.71798C4.72662 6.41962 5.28661 6.48612 5.58882 6.8676L7.04033 8.69275L10.4038 4.34511C10.7007 3.961 11.258 3.88576 11.65 4.17887C12.0402 4.47198 12.1157 5.02057 11.818 5.40468" fill="#34AF23"/>
</svg>
