<svg width="76" height="17" viewBox="0 0 76 17" fill="none" xmlns="http://www.w3.org/2000/svg">
<path d="M20.344 8.096C21.32 8.096 22.128 7.744 22.656 7.096L21.824 6.328C21.448 6.768 20.976 6.992 20.416 6.992C19.368 6.992 18.624 6.256 18.624 5.2C18.624 4.144 19.368 3.408 20.416 3.408C20.976 3.408 21.448 3.632 21.824 4.064L22.656 3.296C22.128 2.656 21.32 2.304 20.352 2.304C18.608 2.304 17.312 3.512 17.312 5.2C17.312 6.888 18.608 8.096 20.344 8.096ZM26.126 8.096C27.886 8.096 29.19 6.872 29.19 5.2C29.19 3.528 27.886 2.304 26.126 2.304C24.358 2.304 23.062 3.536 23.062 5.2C23.062 6.864 24.358 8.096 26.126 8.096ZM26.126 6.992C25.126 6.992 24.374 6.264 24.374 5.2C24.374 4.136 25.126 3.408 26.126 3.408C27.126 3.408 27.878 4.136 27.878 5.2C27.878 6.264 27.126 6.992 26.126 6.992ZM34.02 2.4V5.8L31.236 2.4H30.164V8H31.444V4.6L34.236 8H35.3V2.4H34.02ZM37.9129 6.96V5.664H40.5129V4.656H37.9129V3.44H40.8569V2.4H36.6249V8H40.9609V6.96H37.9129ZM46.9614 8L44.8734 5.104L46.8254 2.4H45.4254L44.1614 4.216L42.8734 2.4H41.4014L43.3694 5.152L41.2974 8H42.7854L44.1134 6.056L45.4654 8H46.9614ZM49.2393 1.464C49.5273 1.464 49.8073 1.968 50.3593 1.968C50.9193 1.968 51.2793 1.512 51.2953 0.824H50.6633C50.6473 1.088 50.4953 1.256 50.2793 1.256C49.9913 1.256 49.7113 0.743999 49.1593 0.743999C48.5993 0.743999 48.2393 1.2 48.2233 1.912H48.8553C48.8713 1.624 49.0233 1.464 49.2393 1.464ZM51.5433 8H52.9033L50.3993 2.4H49.1193L46.6233 8H47.9513L48.4473 6.8H51.0473L51.5433 8ZM48.8633 5.816L49.7513 3.672L50.6393 5.816H48.8633ZM56.1182 8.096C57.8782 8.096 59.1822 6.872 59.1822 5.2C59.1822 3.528 57.8782 2.304 56.1182 2.304C54.3502 2.304 53.0542 3.536 53.0542 5.2C53.0542 6.864 54.3502 8.096 56.1182 8.096ZM56.1182 6.992C55.1182 6.992 54.3662 6.264 54.3662 5.2C54.3662 4.136 55.1182 3.408 56.1182 3.408C57.1182 3.408 57.8702 4.136 57.8702 5.2C57.8702 6.264 57.1182 6.992 56.1182 6.992ZM17.056 10.4V11.44H18.176V16H19.472V10.4H17.056ZM22.8448 16.096C24.2288 16.096 25.2448 15.048 25.2448 13.2C25.2448 11.352 24.2288 10.304 22.8448 10.304C21.4688 10.304 20.4448 11.352 20.4448 13.2C20.4448 15.048 21.4688 16.096 22.8448 16.096ZM22.8448 15C22.2048 15 21.7568 14.472 21.7568 13.2C21.7568 11.928 22.2048 11.4 22.8448 11.4C23.4928 11.4 23.9408 11.928 23.9408 13.2C23.9408 14.472 23.4928 15 22.8448 15ZM28.2745 16.096C29.6585 16.096 30.6745 15.048 30.6745 13.2C30.6745 11.352 29.6585 10.304 28.2745 10.304C26.8985 10.304 25.8745 11.352 25.8745 13.2C25.8745 15.048 26.8985 16.096 28.2745 16.096ZM28.2745 15C27.6345 15 27.1865 14.472 27.1865 13.2C27.1865 11.928 27.6345 11.4 28.2745 11.4C28.9225 11.4 29.3705 11.928 29.3705 13.2C29.3705 14.472 28.9225 15 28.2745 15ZM32.6002 13.424C33.4162 13.424 33.9842 12.832 33.9842 11.88C33.9842 10.928 33.4162 10.336 32.6002 10.336C31.7842 10.336 31.2082 10.936 31.2082 11.88C31.2082 12.824 31.7842 13.424 32.6002 13.424ZM32.1122 16H33.0642L36.8882 10.4H35.9362L32.1122 16ZM32.6002 12.768C32.2562 12.768 32.0162 12.472 32.0162 11.88C32.0162 11.288 32.2562 10.992 32.6002 10.992C32.9522 10.992 33.1842 11.28 33.1842 11.88C33.1842 12.48 32.9522 12.768 32.6002 12.768ZM36.4002 16.064C37.2162 16.064 37.7922 15.464 37.7922 14.52C37.7922 13.576 37.2162 12.976 36.4002 12.976C35.5922 12.976 35.0162 13.576 35.0162 14.52C35.0162 15.464 35.5922 16.064 36.4002 16.064ZM36.4002 15.408C36.0562 15.408 35.8162 15.12 35.8162 14.52C35.8162 13.92 36.0562 13.632 36.4002 13.632C36.7522 13.632 36.9842 13.928 36.9842 14.52C36.9842 15.112 36.7522 15.408 36.4002 15.408ZM42.7774 16.096C44.3774 16.096 45.1534 15.296 45.1534 14.36C45.1534 12.304 41.8974 13.016 41.8974 11.984C41.8974 11.632 42.1934 11.344 42.9614 11.344C43.4574 11.344 43.9934 11.488 44.5134 11.784L44.9134 10.8C44.3934 10.472 43.6734 10.304 42.9694 10.304C41.3774 10.304 40.6094 11.096 40.6094 12.048C40.6094 14.128 43.8654 13.408 43.8654 14.456C43.8654 14.8 43.5534 15.056 42.7854 15.056C42.1134 15.056 41.4094 14.816 40.9374 14.472L40.4974 15.448C40.9934 15.832 41.8894 16.096 42.7774 16.096ZM47.327 14.96V13.664H49.927V12.656H47.327V11.44H50.271V10.4H46.039V16H50.375V14.96H47.327ZM55.1746 14.752C54.8466 14.928 54.5186 14.992 54.1666 14.992C53.0946 14.992 52.3506 14.248 52.3506 13.2C52.3506 12.136 53.0946 11.408 54.1826 11.408C54.7506 11.408 55.2226 11.608 55.6306 12.04L56.4626 11.272C55.9186 10.64 55.1026 10.304 54.1186 10.304C52.3346 10.304 51.0386 11.512 51.0386 13.2C51.0386 14.888 52.3346 16.096 54.0946 16.096C54.8946 16.096 55.7426 15.848 56.3586 15.384V13.112H55.1746V14.752ZM60.0504 16.096C61.6424 16.096 62.5864 15.184 62.5864 13.536V10.4H61.3064V13.488C61.3064 14.552 60.8504 14.992 60.0584 14.992C59.2744 14.992 58.8104 14.552 58.8104 13.488V10.4H57.5144V13.536C57.5144 15.184 58.4584 16.096 60.0504 16.096ZM68.8271 16L67.5711 14.2C68.2991 13.888 68.7231 13.272 68.7231 12.432C68.7231 11.176 67.7871 10.4 66.2911 10.4H63.8671V16H65.1631V14.44H66.2911H66.3551L67.4351 16H68.8271ZM67.4111 12.432C67.4111 13.04 67.0111 13.408 66.2191 13.408H65.1631V11.456H66.2191C67.0111 11.456 67.4111 11.816 67.4111 12.432ZM73.9339 16H75.2939L72.7899 10.4H71.5099L69.0139 16H70.3419L70.8379 14.8H73.4379L73.9339 16ZM71.2539 13.816L72.1419 11.672L73.0299 13.816H71.2539Z" fill="#34AF23"/>
<path fill-rule="evenodd" clip-rule="evenodd" d="M6.4 11.2C5.9584 11.2 5.6 10.8416 5.6 10.4C5.6 9.9584 5.9584 9.6 6.4 9.6C6.8416 9.6 7.2 9.9584 7.2 10.4C7.2 10.8416 6.8416 11.2 6.4 11.2ZM6.4 7.99993C5.0768 7.99993 4 9.07673 4 10.3999C4 11.7231 5.0768 12.7999 6.4 12.7999C7.7232 12.7999 8.8 11.7231 8.8 10.3999C8.8 9.07673 7.7232 7.99993 6.4 7.99993ZM11.2 13.6001C11.2 14.0417 10.8416 14.4001 10.4 14.4001H2.4C1.9584 14.4001 1.6 14.0417 1.6 13.6001V7.20006C1.6 6.75846 1.9584 6.40006 2.4 6.40006H3.2H4.8H8H9.6H10.4C10.8416 6.40006 11.2 6.75846 11.2 7.20006V13.6001ZM4.8 3.28887C4.8 2.35767 5.5176 1.60007 6.4 1.60007C7.28241 1.60007 8.00001 2.35767 8.00001 3.28887V4.80007H4.8V3.28887ZM10.4 4.8H9.6V3.2888C9.6 1.476 8.1648 0 6.4 0C4.6352 0 3.2 1.476 3.2 3.2888V4.8H2.4C1.0768 4.8 0 5.8768 0 7.2V13.6C0 14.9232 1.0768 16 2.4 16H10.4C11.7232 16 12.8 14.9232 12.8 13.6V7.2C12.8 5.8768 11.7232 4.8 10.4 4.8Z" fill="#34AF23"/>
</svg>
