<svg width="56" height="12" viewBox="0 0 56 12" fill="none" xmlns="http://www.w3.org/2000/svg">
<path d="M5.52447 1.46353C5.67415 1.00287 6.32585 1.00287 6.47553 1.46353L7.23483 3.80041C7.30176 4.00642 7.49374 4.1459 7.71036 4.1459H10.1675C10.6519 4.1459 10.8532 4.76571 10.4614 5.05041L8.47352 6.49468C8.29828 6.622 8.22495 6.84768 8.29188 7.0537L9.05118 9.39058C9.20086 9.85123 8.67362 10.2343 8.28176 9.94959L6.29389 8.50532C6.11865 8.378 5.88135 8.378 5.70611 8.50532L3.71824 9.94959C3.32638 10.2343 2.79914 9.85123 2.94882 9.39058L3.70812 7.0537C3.77505 6.84768 3.70172 6.622 3.52648 6.49468L1.53861 5.05041C1.14675 4.76571 1.34814 4.1459 1.8325 4.1459H4.28964C4.50626 4.1459 4.69824 4.00642 4.76517 3.80041L5.52447 1.46353Z" fill="#FFDF6C"/>
<path d="M16.5245 1.46353C16.6741 1.00287 17.3259 1.00287 17.4755 1.46353L18.2348 3.80041C18.3018 4.00642 18.4937 4.1459 18.7104 4.1459H21.1675C21.6519 4.1459 21.8532 4.76571 21.4614 5.05041L19.4735 6.49468C19.2983 6.622 19.2249 6.84768 19.2919 7.0537L20.0512 9.39058C20.2009 9.85123 19.6736 10.2343 19.2818 9.94959L17.2939 8.50532C17.1186 8.378 16.8814 8.378 16.7061 8.50532L14.7182 9.94959C14.3264 10.2343 13.7991 9.85123 13.9488 9.39058L14.7081 7.0537C14.7751 6.84768 14.7017 6.622 14.5265 6.49468L12.5386 5.05041C12.1468 4.76571 12.3481 4.1459 12.8325 4.1459H15.2896C15.5063 4.1459 15.6982 4.00642 15.7652 3.80041L16.5245 1.46353Z" fill="#FFDF6C"/>
<path d="M27.5245 1.46353C27.6741 1.00287 28.3259 1.00287 28.4755 1.46353L29.2348 3.80041C29.3018 4.00642 29.4937 4.1459 29.7104 4.1459H32.1675C32.6519 4.1459 32.8532 4.76571 32.4614 5.05041L30.4735 6.49468C30.2983 6.622 30.2249 6.84768 30.2919 7.0537L31.0512 9.39058C31.2009 9.85123 30.6736 10.2343 30.2818 9.94959L28.2939 8.50532C28.1186 8.378 27.8814 8.378 27.7061 8.50532L25.7182 9.94959C25.3264 10.2343 24.7991 9.85123 24.9488 9.39058L25.7081 7.0537C25.7751 6.84768 25.7017 6.622 25.5265 6.49468L23.5386 5.05041C23.1468 4.76571 23.3481 4.1459 23.8325 4.1459H26.2896C26.5063 4.1459 26.6982 4.00642 26.7652 3.80041L27.5245 1.46353Z" fill="#FFDF6C"/>
<path d="M38.5245 1.46353C38.6741 1.00287 39.3259 1.00287 39.4755 1.46353L40.2348 3.80041C40.3018 4.00642 40.4937 4.1459 40.7104 4.1459H43.1675C43.6519 4.1459 43.8532 4.76571 43.4614 5.05041L41.4735 6.49468C41.2983 6.622 41.2249 6.84768 41.2919 7.0537L42.0512 9.39058C42.2009 9.85123 41.6736 10.2343 41.2818 9.94959L39.2939 8.50532C39.1186 8.378 38.8814 8.378 38.7061 8.50532L36.7182 9.94959C36.3264 10.2343 35.7991 9.85123 35.9488 9.39058L36.7081 7.0537C36.7751 6.84768 36.7017 6.622 36.5265 6.49468L34.5386 5.05041C34.1468 4.76571 34.3481 4.1459 34.8325 4.1459H37.2896C37.5063 4.1459 37.6982 4.00642 37.7652 3.80041L38.5245 1.46353Z" fill="#FFDF6C"/>
<path d="M49.5245 1.46353C49.6741 1.00287 50.3259 1.00287 50.4755 1.46353L51.2348 3.80041C51.3018 4.00642 51.4937 4.1459 51.7104 4.1459H54.1675C54.6519 4.1459 54.8532 4.76571 54.4614 5.05041L52.4735 6.49468C52.2983 6.622 52.2249 6.84768 52.2919 7.0537L53.0512 9.39058C53.2009 9.85123 52.6736 10.2343 52.2818 9.94959L50.2939 8.50532C50.1186 8.378 49.8814 8.378 49.7061 8.50532L47.7182 9.94959C47.3264 10.2343 46.7991 9.85123 46.9488 9.39058L47.7081 7.0537C47.7751 6.84768 47.7017 6.622 47.5265 6.49468L45.5386 5.05041C45.1468 4.76571 45.3481 4.1459 45.8325 4.1459H48.2896C48.5063 4.1459 48.6982 4.00642 48.7652 3.80041L49.5245 1.46353Z" fill="#FFDF6C"/>
</svg>
