<svg width="17" height="15" viewBox="0 0 17 15" fill="none" xmlns="http://www.w3.org/2000/svg">
<path fill-rule="evenodd" clip-rule="evenodd" d="M13.3333 5.83333C13.3333 5.37416 12.96 5 12.5 5C12.04 5 11.6667 5.37416 11.6667 5.83333C11.6667 6.29249 12.04 6.66666 12.5 6.66666C12.96 6.66666 13.3333 6.29249 13.3333 5.83333ZM15 5.83334C15 7.21168 13.8783 8.33334 12.5 8.33334C11.1217 8.33334 10 7.21168 10 5.83334C10 4.45501 11.1217 3.33334 12.5 3.33334C13.8783 3.33334 15 4.45501 15 5.83334ZM7.5 3.33333C7.5 2.41416 6.7525 1.66666 5.83333 1.66666C4.91416 1.66666 4.16666 2.41416 4.16666 3.33333C4.16666 4.2525 4.91416 5 5.83333 5C6.7525 5 7.5 4.2525 7.5 3.33333ZM9.16667 3.33333C9.16667 5.17166 7.67167 6.66666 5.83333 6.66666C3.995 6.66666 2.5 5.17166 2.5 3.33333C2.5 1.495 3.995 0 5.83333 0C7.67167 0 9.16667 1.495 9.16667 3.33333ZM9.95 10.0383C10.6742 9.47834 11.5658 9.16668 12.5 9.16668C14.7975 9.16668 16.6667 11.0358 16.6667 13.3333C16.6667 13.7933 16.2942 14.1667 15.8333 14.1667C15.3725 14.1667 15 13.7933 15 13.3333C15 11.955 13.8783 10.8333 12.5 10.8333C11.9308 10.8333 11.39 11.0283 10.9533 11.3742C11.4067 12.2042 11.6667 13.1558 11.6667 14.1667C11.6667 14.6267 11.2942 15 10.8333 15C10.3725 15 10 14.6267 10 14.1667C10 11.8692 8.13083 10 5.83333 10C3.53583 10 1.66667 11.8692 1.66667 14.1667C1.66667 14.6267 1.29417 15 0.833333 15C0.3725 15 0 14.6267 0 14.1667C0 10.95 2.6175 8.33334 5.83333 8.33334C7.43917 8.33334 8.89417 8.98584 9.95 10.0383Z" fill="#E2202C"/>
</svg>
