<svg width="11" height="11" viewBox="0 0 11 11" fill="none" xmlns="http://www.w3.org/2000/svg">
<g clip-path="url(#clip0)">
<path d="M7.33342 2.86458L7.33342 7.71375C7.33342 8.67167 6.63217 9.52417 5.67883 9.61583C4.588 9.72125 3.66675 8.86417 3.66675 7.79167L3.66675 2.12667C3.66675 1.52625 4.09758 0.980834 4.69341 0.92125C5.38091 0.852501 5.95842 1.38875 5.95842 2.0625L5.95842 6.875C5.95842 7.12708 5.75217 7.33333 5.50008 7.33333C5.248 7.33333 5.04175 7.12708 5.04175 6.875L5.04175 2.86458C5.04175 2.67667 4.88591 2.52083 4.698 2.52083C4.51008 2.52083 4.35425 2.67667 4.35425 2.86458L4.35425 6.81083C4.35425 7.41125 4.78508 7.95667 5.38092 8.01625C6.06842 8.085 6.64592 7.54875 6.64592 6.875L6.64592 2.14042C6.64592 1.1825 5.94467 0.330001 4.99133 0.238335C3.89591 0.132917 2.97925 0.990001 2.97925 2.0625L2.97925 7.68625C2.97925 9.00167 3.94175 10.1796 5.25258 10.3033C6.7605 10.4408 8.02092 9.2675 8.02092 7.79167L8.02092 2.86458C8.02092 2.67667 7.86508 2.52083 7.67717 2.52083C7.48925 2.52083 7.33342 2.67667 7.33342 2.86458Z" fill="white"/>
</g>
<defs>
<clipPath id="clip0">
<rect width="11" height="11" fill="white" transform="translate(0 11) rotate(-90)"/>
</clipPath>
</defs>
</svg>
