<svg width="44" height="44" viewBox="0 0 44 44" fill="none" xmlns="http://www.w3.org/2000/svg">
<path fill-rule="evenodd" clip-rule="evenodd" d="M21.9999 5.50001C12.8872 5.50001 5.49992 12.8873 5.49992 22C5.49992 31.1127 12.8872 38.5 21.9999 38.5C31.1126 38.5 38.4999 31.1127 38.4999 22C38.4999 12.8873 31.1126 5.50001 21.9999 5.50001ZM1.83325 22C1.83325 10.8623 10.8622 1.83334 21.9999 1.83334C33.1377 1.83334 42.1666 10.8623 42.1666 22C42.1666 33.1377 33.1377 42.1667 21.9999 42.1667C10.8622 42.1667 1.83325 33.1377 1.83325 22Z" fill="#F9A000"/>
<path fill-rule="evenodd" clip-rule="evenodd" d="M22.0001 20.1667C23.0126 20.1667 23.8334 20.9875 23.8334 22V29.3333C23.8334 30.3458 23.0126 31.1667 22.0001 31.1667C20.9876 31.1667 20.1667 30.3458 20.1667 29.3333V22C20.1667 20.9875 20.9876 20.1667 22.0001 20.1667Z" fill="#F9A000"/>
<path fill-rule="evenodd" clip-rule="evenodd" d="M20.1667 14.6667C20.1667 13.6542 20.9876 12.8333 22.0001 12.8333H22.0184C23.0309 12.8333 23.8517 13.6542 23.8517 14.6667C23.8517 15.6792 23.0309 16.5 22.0184 16.5H22.0001C20.9876 16.5 20.1667 15.6792 20.1667 14.6667Z" fill="#F9A000"/>
</svg>
