<svg width="12" height="15" viewBox="0 0 12 15" fill="none" xmlns="http://www.w3.org/2000/svg">
<path fill-rule="evenodd" clip-rule="evenodd" d="M7.50002 3.33333C7.50002 2.41416 6.75252 1.66666 5.83335 1.66666C4.91418 1.66666 4.16668 2.41416 4.16668 3.33333C4.16668 4.2525 4.91418 5 5.83335 5C6.75252 5 7.50002 4.2525 7.50002 3.33333ZM9.1667 3.33333C9.1667 5.17166 7.6717 6.66666 5.83337 6.66666C3.99503 6.66666 2.50003 5.17166 2.50003 3.33333C2.50003 1.495 3.99503 0 5.83337 0C7.6717 0 9.1667 1.495 9.1667 3.33333ZM0 14.1667C0 10.95 2.6175 8.33334 5.83333 8.33334C9.04917 8.33334 11.6667 10.95 11.6667 14.1667C11.6667 14.6267 11.2942 15 10.8333 15C10.3725 15 10 14.6267 10 14.1667C10 11.8692 8.13083 10 5.83333 10C3.53583 10 1.66667 11.8692 1.66667 14.1667C1.66667 14.6267 1.29417 15 0.833333 15C0.3725 15 0 14.6267 0 14.1667Z" fill="#E2202C"/>
</svg>
