<svg width="25" height="30" viewBox="0 0 25 30" fill="none" xmlns="http://www.w3.org/2000/svg">
<g clip-path="url(#clip0)">
<path fill-rule="evenodd" clip-rule="evenodd" d="M19.3358 5.46014V0H5.83322V5.46014H0V24.0923H5.83322V30.0034H19.3358V24.0923H25.0033V5.46014H19.3358Z" fill="#E2202C"/>
<path fill-rule="evenodd" clip-rule="evenodd" d="M24.0851 22.3667H18.1691V20.9077H19.4219V11.7266C19.4219 10.9031 19.2495 10.3633 18.9181 9.90882C18.5834 9.54321 18.0895 9.27328 17.4134 9.27328C16.9163 9.27328 16.4191 9.46121 15.922 9.72772C15.3386 10.0011 14.8382 10.3667 14.3344 10.9065V20.9111H15.5872V22.3701H9.67112V20.9111H10.9173V11.73C10.9173 10.9065 10.7483 10.3667 10.4168 9.91223C10.0887 9.54663 9.58495 9.2767 8.91546 9.2767C8.50116 9.2767 8.00402 9.46463 7.41075 9.73114C6.9136 10.0045 6.42308 10.3701 5.9193 10.91V20.9145H7.17212V22.3735H1.24941V20.9145H2.50223V9.2767L1.24609 9.63547V8.18331L5.74696 6.63889H5.91599L5.82981 9.09219C6.83074 8.18331 7.66595 7.54777 8.41499 7.18558C9.16403 6.72772 9.91638 6.54663 10.5826 6.54663C11.3283 6.54663 11.9978 6.81656 12.6673 7.27442C13.3301 7.72886 13.7478 8.3644 14.0825 9.18444C14.9973 8.27214 15.9186 7.64003 16.6644 7.18558C17.4963 6.81656 18.2453 6.54663 18.9148 6.54663C20.1643 6.54663 21.0824 7.01132 21.7452 7.82453C22.4147 8.63433 22.829 9.8234 22.829 11.2756V20.9111H24.0851V22.3667Z" fill="white"/>
</g>
<defs>
<clipPath id="clip0">
<rect width="25" height="30" fill="white"/>
</clipPath>
</defs>
</svg>
