<svg width="14" height="24" viewBox="0 0 14 24" fill="none" xmlns="http://www.w3.org/2000/svg">
<g filter="url(#filter0_f)">
<ellipse cx="6.99984" cy="20.2002" rx="2.16" ry="1.2" fill="black" fill-opacity="0.12"/>
</g>
<mask id="path-2-outside-1" maskUnits="userSpaceOnUse" x="0" y="0.719971" width="14" height="21" fill="black">
<rect fill="white" y="0.719971" width="14" height="21"/>
<path fill-rule="evenodd" clip-rule="evenodd" d="M13 7.71997C13 9.07333 12.5519 10.322 11.796 11.3258C11.5259 11.7029 11.1595 12.1042 10.7537 12.5487C9.35205 14.0837 7.48 16.134 7.48 19.4803C7.48 19.7454 7.2651 19.9603 7 19.9603C6.7349 19.9603 6.52 19.7454 6.52 19.4803C6.52 16.134 4.64795 14.0837 3.24632 12.5487C2.84048 12.1042 2.47408 11.7029 2.20398 11.3258C1.44808 10.3221 1 9.07334 1 7.71997C1 4.40626 3.68629 1.71997 7 1.71997C10.3137 1.71997 13 4.40626 13 7.71997Z"/>
</mask>
<path fill-rule="evenodd" clip-rule="evenodd" d="M13 7.71997C13 9.07333 12.5519 10.322 11.796 11.3258C11.5259 11.7029 11.1595 12.1042 10.7537 12.5487C9.35205 14.0837 7.48 16.134 7.48 19.4803C7.48 19.7454 7.2651 19.9603 7 19.9603C6.7349 19.9603 6.52 19.7454 6.52 19.4803C6.52 16.134 4.64795 14.0837 3.24632 12.5487C2.84048 12.1042 2.47408 11.7029 2.20398 11.3258C1.44808 10.3221 1 9.07334 1 7.71997C1 4.40626 3.68629 1.71997 7 1.71997C10.3137 1.71997 13 4.40626 13 7.71997Z" fill="#EA352B"/>
<path d="M11.796 11.3258L10.9972 10.7243L10.99 10.7338L10.9831 10.7435L11.796 11.3258ZM10.7537 12.5487L10.0152 11.8744L10.7537 12.5487ZM3.24632 12.5487L3.9848 11.8744H3.9848L3.24632 12.5487ZM2.20398 11.3258L3.01692 10.7435L3.00998 10.7338L3.00281 10.7243L2.20398 11.3258ZM12.5949 11.9274C13.4768 10.7562 14 9.29775 14 7.71997H12C12 8.84892 11.627 9.88787 10.9972 10.7243L12.5949 11.9274ZM11.4922 13.2229C11.8856 12.792 12.2971 12.3435 12.609 11.9082L10.9831 10.7435C10.7547 11.0623 10.4334 11.4163 10.0152 11.8744L11.4922 13.2229ZM8.48 19.4803C8.48 16.556 10.0864 14.7625 11.4922 13.2229L10.0152 11.8744C8.6177 13.4049 6.48 15.7119 6.48 19.4803H8.48ZM7 20.9603C7.81738 20.9603 8.48 20.2977 8.48 19.4803H6.48C6.48 19.1931 6.71281 18.9603 7 18.9603V20.9603ZM5.52 19.4803C5.52 20.2977 6.18262 20.9603 7 20.9603V18.9603C7.28719 18.9603 7.52 19.1931 7.52 19.4803H5.52ZM2.50785 13.2229C3.91359 14.7625 5.52 16.556 5.52 19.4803H7.52C7.52 15.7119 5.3823 13.4049 3.9848 11.8744L2.50785 13.2229ZM1.39104 11.9082C1.70288 12.3435 2.11438 12.792 2.50785 13.2229L3.9848 11.8744C3.56658 11.4163 3.24527 11.0623 3.01692 10.7435L1.39104 11.9082ZM0 7.71997C0 9.29776 0.523202 10.7562 1.40515 11.9274L3.00281 10.7243C2.37296 9.88788 2 8.84892 2 7.71997H0ZM7 0.719971C3.13401 0.719971 0 3.85398 0 7.71997H2C2 4.95855 4.23858 2.71997 7 2.71997V0.719971ZM14 7.71997C14 3.85398 10.866 0.719971 7 0.719971V2.71997C9.76142 2.71997 12 4.95855 12 7.71997H14Z" fill="url(#paint0_linear)" mask="url(#path-2-outside-1)"/>
<circle cx="6.99984" cy="7.71981" r="2.16" fill="black" fill-opacity="0.4"/>
<defs>
<filter id="filter0_f" x="2.83984" y="17.0002" width="8.32" height="6.4" filterUnits="userSpaceOnUse" color-interpolation-filters="sRGB">
<feFlood flood-opacity="0" result="BackgroundImageFix"/>
<feBlend mode="normal" in="SourceGraphic" in2="BackgroundImageFix" result="shape"/>
<feGaussianBlur stdDeviation="1" result="effect1_foregroundBlur"/>
</filter>
<linearGradient id="paint0_linear" x1="7" y1="1.71997" x2="7" y2="19.9603" gradientUnits="userSpaceOnUse">
<stop stop-color="white"/>
<stop offset="1" stop-color="white" stop-opacity="0.35"/>
</linearGradient>
</defs>
</svg>
