<svg width="15" height="15" viewBox="0 0 15 15" fill="none" xmlns="http://www.w3.org/2000/svg">
<path fill-rule="evenodd" clip-rule="evenodd" d="M7.33333 14.6667C3.28324 14.6667 0 11.3834 0 7.33334C0 3.28325 3.28324 0 7.33333 0C11.3834 0 14.6667 3.28325 14.6667 7.33334C14.6667 11.3834 11.3834 14.6667 7.33333 14.6667ZM7.33335 13.3333C10.6471 13.3333 13.3334 10.647 13.3334 7.33331C13.3334 4.0196 10.6471 1.33331 7.33335 1.33331C4.01964 1.33331 1.33335 4.0196 1.33335 7.33331C1.33335 10.647 4.01964 13.3333 7.33335 13.3333ZM10.6071 9.63227L9.51645 8.86523C9.01955 9.57174 8.21302 10 7.33335 10C6.45368 10 5.64715 9.57174 5.15025 8.86523L4.05964 9.63227C4.80365 10.6901 6.01498 11.3333 7.33335 11.3333C8.65172 11.3333 9.86305 10.6901 10.6071 9.63227ZM8.66665 6.66669V5.33331H9.99998V6.66669H8.66665ZM4.66665 5.33331V6.66669H5.99998V5.33331H4.66665Z" fill="#E2202C"/>
</svg>
