<svg width="213" height="22" viewBox="0 0 213 22" fill="none" xmlns="http://www.w3.org/2000/svg">
<path d="M72.278 6.8692H70.5567C70.0363 6.8692 69.636 7.02932 69.3958 7.54972L66.1133 15.0354H68.4351C68.4351 15.0354 68.8354 14.0347 68.9154 13.7945C69.1556 13.7945 71.4374 13.7945 71.7576 13.7945C71.8377 14.0747 72.0378 14.9954 72.0378 14.9954H74.1194L72.278 6.8692ZM69.5559 12.1132C69.7561 11.6328 70.4366 9.83147 70.4366 9.83147C70.4366 9.8715 70.6367 9.3511 70.7168 9.07089L70.8769 9.79144C70.8769 9.79144 71.3173 11.7529 71.3973 12.1532H69.5559V12.1132Z" fill="#3362AB"/>
<path d="M66.2731 12.3534C66.2731 14.0347 64.7519 15.1556 62.3901 15.1556C61.3893 15.1556 60.4286 14.9554 59.9082 14.7152L60.2284 12.8738L60.5087 12.9939C61.2292 13.3142 61.7096 13.4343 62.5903 13.4343C63.2307 13.4343 63.9113 13.1941 63.9113 12.6336C63.9113 12.2734 63.6311 12.0332 62.7504 11.6329C61.9097 11.2326 60.7889 10.5921 60.7889 9.4312C60.7889 7.82997 62.3501 6.74915 64.5518 6.74915C65.3924 6.74915 66.113 6.90927 66.5533 7.10942L66.233 8.87077L66.0729 8.71065C65.6726 8.55052 65.1522 8.3904 64.3916 8.3904C63.551 8.43043 63.1507 8.79071 63.1507 9.11095C63.1507 9.47123 63.6311 9.75144 64.3916 10.1117C65.6726 10.7122 66.2731 11.3927 66.2731 12.3534Z" fill="#3362AB"/>
<path d="M46.7383 6.94882L46.7783 6.7887H50.2209C50.7013 6.7887 51.0616 6.94882 51.1817 7.46922L51.9423 11.072C51.1817 9.1505 49.4203 7.58931 46.7383 6.94882Z" fill="#F9B50B"/>
<path d="M56.7859 6.86925L53.3033 14.9955H50.9415L48.9399 8.19027C50.381 9.11097 51.582 10.5521 52.0223 11.5528L52.2625 12.3935L54.4241 6.82922H56.7859V6.86925Z" fill="#3362AB"/>
<path d="M57.7067 6.82922H59.9084L58.5073 14.9955H56.3057L57.7067 6.82922Z" fill="#3362AB"/>
<path d="M97.231 6.90429L92.5239 6.91925L92.6734 15.3338L97.3804 15.3189L97.231 6.90429Z" fill="#FF5F00"/>
<path d="M92.8319 11.1438C92.8014 9.4323 93.5856 7.91168 94.8152 6.92546C93.8859 6.21397 92.7213 5.78603 91.4592 5.79002C88.4693 5.79948 86.093 8.20328 86.1459 11.165C86.1987 14.1267 88.6604 16.5152 91.6503 16.5057C92.9124 16.5017 94.0616 16.0665 94.9654 15.3492C93.7011 14.3858 92.8624 12.8554 92.8319 11.1438Z" fill="#EB001B"/>
<path d="M103.758 11.0726C103.811 14.0343 101.435 16.4381 98.4451 16.4475C97.183 16.4515 96.0184 16.0236 95.0891 15.3121C96.3337 14.3258 97.1029 12.8053 97.0724 11.0937C97.0419 9.38218 96.2035 7.86669 94.9389 6.88836C95.8427 6.17108 96.9919 5.73581 98.254 5.73182C101.244 5.72236 103.706 8.12575 103.758 11.0726Z" fill="#F79E1B"/>
<path d="M207.421 11.3702C207.421 7.20503 204.149 4.32614 200.564 4.32739H197.479C193.851 4.32601 190.865 7.20591 190.865 11.3702C190.865 15.18 193.851 18.31 197.479 18.2916H200.564C204.149 18.3099 207.421 15.179 207.421 11.3702Z" fill="#0079BE"/>
<path d="M197.498 4.91736C194.183 4.91845 191.497 7.77924 191.496 11.31C191.496 14.8401 194.183 17.7005 197.498 17.7017C200.814 17.7007 203.501 14.8402 203.501 11.31C203.501 7.77916 200.814 4.91862 197.498 4.91736V4.91736Z" fill="white"/>
<path d="M193.704 11.2927C193.707 9.56741 194.719 8.09616 196.147 7.51154V15.0731C194.719 14.4888 193.707 13.0183 193.704 11.2928V11.2927ZM198.87 15.075V7.51174C200.297 8.09499 201.311 9.56708 201.314 11.2932C201.311 13.0198 200.297 14.4908 198.87 15.0752V15.075Z" fill="#0079BE"/>
<path d="M173.139 7.16922L172.559 8.44884H173.723L173.139 7.16922ZM166.441 7.96218C166.55 7.91025 166.615 7.79729 166.615 7.65702C166.615 7.51956 166.547 7.42 166.438 7.37322C166.338 7.32136 166.185 7.31538 166.038 7.31538H164.999V8.02835H166.024C166.188 8.02839 166.325 8.0262 166.441 7.96218ZM153.134 7.16922L152.56 8.44884H153.712L153.134 7.16922ZM179.854 15.3669H178.225V14.6784H179.847C180.008 14.6784 180.121 14.6592 180.189 14.5988C180.253 14.545 180.289 14.469 180.288 14.3895C180.288 14.2959 180.247 14.2217 180.185 14.1772C180.124 14.1282 180.035 14.1059 179.888 14.1059C179.096 14.0814 178.108 14.1281 178.108 13.1121C178.108 12.6465 178.433 12.1563 179.318 12.1563H180.998V11.5175H179.438C178.966 11.5175 178.624 11.6202 178.382 11.7798V11.5175H176.073C175.704 11.5175 175.271 11.6008 175.066 11.7798V11.5175H170.943V11.7798C170.615 11.5644 170.061 11.5175 169.806 11.5175H167.087V11.7798C166.827 11.5511 166.25 11.5175 165.898 11.5175H162.855L162.158 12.2032L161.506 11.5175H156.96V15.9978H161.42L162.138 15.3012L162.814 15.9978L165.563 16V14.9461H165.834C166.198 14.9514 166.629 14.9379 167.008 14.7886V15.9977H169.276V14.8299H169.386C169.525 14.8299 169.539 14.8352 169.539 14.9621V15.9974H176.428C176.866 15.9974 177.323 15.8957 177.576 15.7106V15.9974H179.761C180.216 15.9974 180.66 15.9394 180.998 15.791V14.9564C180.793 15.2289 180.394 15.367 179.854 15.367L179.854 15.3669ZM165.87 14.309H164.817V15.3859H163.178L162.14 14.3231L161.061 15.3859H157.72V12.1753H161.112L162.15 13.2277L163.222 12.1753H165.917C166.586 12.1753 167.338 12.3439 167.338 13.233C167.338 14.1249 166.607 14.309 165.87 14.309V14.309ZM170.93 14.1634C171.049 14.3201 171.066 14.4664 171.07 14.7494V15.3859H170.223V14.9843C170.223 14.7911 170.243 14.5051 170.087 14.3558C169.964 14.2408 169.776 14.2134 169.468 14.2134H168.567V15.3859H167.719V12.1753H169.666C170.093 12.1753 170.404 12.1926 170.681 12.3268C170.947 12.4731 171.115 12.6735 171.115 13.0398C171.115 13.5522 170.739 13.8136 170.517 13.8939C170.705 13.9569 170.858 14.0699 170.93 14.1634V14.1634ZM174.414 12.8393H172.439V13.4229H174.365V14.078H172.439V14.7168L174.414 14.7197V15.3859H171.599V12.1753H174.414V12.8393V12.8393ZM176.581 15.3858H174.938V14.6974H176.574C176.734 14.6974 176.848 14.6781 176.919 14.6178C176.977 14.5682 177.018 14.496 177.018 14.4086C177.018 14.3149 176.973 14.2407 176.915 14.1961C176.851 14.1472 176.762 14.125 176.615 14.125C175.826 14.1004 174.839 14.1471 174.839 13.1312C174.839 12.6655 175.16 12.1753 176.045 12.1753H177.735V12.8586H176.188C176.035 12.8586 175.935 12.8639 175.85 12.9167C175.758 12.9687 175.724 13.0458 175.724 13.1476C175.724 13.2687 175.802 13.3511 175.908 13.3867C175.997 13.4149 176.093 13.4231 176.236 13.4231L176.69 13.4344C177.148 13.4444 177.462 13.5166 177.653 13.6925C177.818 13.8471 177.906 14.0423 177.906 14.3727C177.906 15.0634 177.431 15.3858 176.581 15.3858V15.3858ZM170.04 12.8911C169.938 12.836 169.788 12.8331 169.638 12.8331H168.599V13.5541H169.624C169.788 13.5541 169.927 13.5488 170.04 13.4879C170.149 13.4278 170.215 13.3171 170.215 13.1798C170.215 13.0425 170.149 12.9431 170.04 12.8911ZM179.463 12.833C179.309 12.833 179.207 12.8383 179.121 12.891C179.032 12.9431 178.998 13.0202 178.998 13.122C178.998 13.243 179.073 13.3255 179.183 13.3612C179.272 13.3893 179.367 13.3976 179.508 13.3976L179.965 13.4086C180.426 13.419 180.734 13.4912 180.922 13.6672C180.956 13.6916 180.976 13.719 181 13.7466V12.8331H179.463L179.463 12.833V12.833ZM165.899 12.833H164.799V13.6507H165.889C166.213 13.6507 166.415 13.5044 166.415 13.2267C166.415 12.9459 166.203 12.833 165.899 12.833V12.833ZM158.56 12.833V13.4167H160.411V14.0718H158.56V14.7106H160.633L161.597 13.7687L160.674 12.833H158.56ZM163.974 15.0782V12.5042L162.68 13.7705L163.974 15.0782V15.0782ZM158.631 9.92341V10.4766H165.677L165.673 9.3063H165.81C165.905 9.30933 165.933 9.31733 165.933 9.46074V10.4767H169.577V10.2042C169.871 10.3475 170.328 10.4767 170.93 10.4767H172.463L172.791 9.76371H173.519L173.839 10.4767H176.794V9.79942L177.241 10.4766H179.609V6H177.266V6.5287L176.938 6H174.533V6.5287L174.232 6H170.985C170.441 6 169.963 6.06902 169.577 6.26141V6H167.336V6.26141C167.09 6.06311 166.756 6 166.384 6H158.196L157.647 7.15629L157.083 6H154.504V6.5287L154.221 6H152.021L151 8.12853V9.83112L152.51 6.62124H153.763L155.198 9.66032V6.62124H156.574L157.678 8.79874L158.692 6.62124H160.096V9.83112H159.231L159.228 7.3172L158.005 9.83112H157.265L156.039 7.31497V9.83112H154.323L153.999 9.11515H152.243L151.916 9.83112H151V10.4769H152.441L152.766 9.76389H153.493L153.817 10.4769H156.653V9.93174L156.906 10.4791H158.377L158.631 9.92352L158.631 9.92341ZM169.734 6.99539C170.006 6.7392 170.433 6.62106 171.014 6.62106H171.831V7.30884H171.032C170.724 7.30884 170.55 7.35047 170.383 7.49903C170.239 7.63416 170.14 7.88965 170.14 8.22607C170.14 8.56998 170.215 8.81792 170.372 8.97988C170.502 9.1069 170.738 9.14543 170.96 9.14543H171.339L172.527 6.62117H173.791L175.219 9.65722V6.6212H176.503L177.985 8.8567V6.6212H178.849V9.83098H177.654L176.056 7.42183V9.83098H174.338L174.01 9.115H172.258L171.939 9.83098H170.953C170.543 9.83098 170.024 9.74852 169.73 9.47593C169.433 9.20342 169.279 8.83424 169.279 8.25058C169.279 7.77447 169.371 7.3393 169.734 6.99539V6.99539ZM167.999 6.62109H168.86V9.83098H167.999V6.62109ZM164.119 6.62109H166.059C166.49 6.62109 166.808 6.6315 167.08 6.77484C167.347 6.91822 167.507 7.12755 167.507 7.48552C167.507 7.99735 167.132 8.26172 166.913 8.34115C167.097 8.40506 167.255 8.51794 167.33 8.61143C167.449 8.7711 167.47 8.91371 167.47 9.20035V9.83094H166.619L166.616 9.42615C166.616 9.23296 166.636 8.95519 166.483 8.80086C166.36 8.68801 166.172 8.66344 165.868 8.66344H164.963V9.83098H164.119L164.119 6.62109V6.62109ZM160.72 6.62109H163.537V7.28952H161.563V7.8681H163.489V8.52608H161.563V9.16712H163.537V9.83094H160.72V6.62109V6.62109Z" fill="#2557D6"/>
<g clip-path="url(#clip0)">
<path d="M7.89329 14.7308H9.70019V9.6337H7.89329V14.7308ZM10.3026 6.17372H9.0982V7.34743H10.3026V6.17372ZM3.51917 6.76081H1.8069V8.24359H3.42597C4.45258 8.24359 5.03601 8.72966 5.03601 9.61655C5.03601 10.5261 4.45258 11.0238 3.42597 11.0238H1.8069V8.24359H0V14.7308H1.8069V12.5066H3.51917C5.59615 12.5066 6.78633 11.4075 6.78633 9.554C6.78633 7.7918 5.59615 6.76081 3.51917 6.76081ZM11.5071 5H7.89329V8.52161H11.5071V5ZM10.9046 7.93452H8.49527V5.58709H10.9046V7.93452ZM21.4284 6.76081H19.7808V8.24359H21.3352C22.3618 8.24359 22.9452 8.72966 22.9452 9.61655C22.9452 10.5261 22.3618 11.0238 21.3352 11.0238H19.7808V8.24359H17.9739V14.7308H19.7808V12.5066H21.4284C23.5054 12.5066 24.6955 11.4075 24.6955 9.554C24.6955 7.7918 23.5054 6.76081 21.4284 6.76081ZM36.4889 8.61429L34.9473 12.4121L33.4091 8.61429H31.5541L34.0115 14.7173L33.0653 17.0476H34.9468L38.3333 8.61429H36.4889ZM28.4268 8.59251C27.3298 8.59251 26.5248 8.84273 25.5914 9.29729L26.1515 10.5025C26.8049 10.1499 27.4648 9.96825 28.025 9.96825C28.8885 9.96825 29.3383 10.3436 29.3383 10.9918V11.1165H27.5985C26.0583 11.1165 25.2067 11.8046 25.2067 12.9533C25.2067 14.0677 26.0241 14.861 27.3659 14.861C28.2409 14.861 28.8633 14.5742 29.3388 14.0621V14.7308H31.0991L31.0877 10.7634C31.0753 9.38765 30.1067 8.59251 28.4268 8.59251ZM29.481 12.6859C29.2908 13.2091 28.7744 13.6071 28.0159 13.6071C27.4092 13.6071 27.0326 13.298 27.0326 12.8319C27.0326 12.343 27.3678 12.1359 28.0564 12.1359H29.481V12.6859ZM14.255 13.3912C13.3801 13.3912 12.7615 12.7202 12.7615 11.7309C12.7615 10.7532 13.3801 10.0934 14.255 10.0934C14.8736 10.0818 15.352 10.332 15.6901 10.7416L16.9035 9.88902C16.3434 9.07024 15.3867 8.60409 14.1846 8.60409C12.2593 8.60409 10.9641 9.86631 10.9641 11.7425C10.9641 13.596 12.2593 14.8466 14.1613 14.8466C15.4447 14.8466 16.4252 14.3462 16.9501 13.4936L15.7134 12.6748C15.3981 13.1525 14.8964 13.3912 14.255 13.3912Z" fill="#11C76F"/>
</g>
<path d="M119.118 8.29162C119.428 8.19004 119.76 8.13489 120.105 8.13489C121.61 8.13489 122.865 9.18366 123.153 10.5769L125.286 10.1503C124.796 7.78241 122.663 6 120.105 6C119.519 6 118.955 6.09361 118.429 6.26604L119.118 8.29162Z" fill="#FECA2F"/>
<path d="M116.58 15.1538L117.857 13.5049C117.287 12.9283 116.927 12.0866 116.927 11.1483C116.927 10.2108 117.287 9.36903 117.857 8.79291L116.579 7.14423C115.61 8.12378 115 9.55465 115 11.1483C115 12.7428 115.611 14.1742 116.58 15.1538" fill="#1BA7DE"/>
<path d="M123.154 11.7211C122.865 13.1141 121.61 14.1615 120.106 14.1615C119.761 14.1615 119.429 14.1062 119.119 14.0043L118.429 16.0309C118.956 16.2042 119.52 16.2979 120.106 16.2979C122.662 16.2979 124.795 14.5168 125.286 12.1498L123.154 11.7211Z" fill="#EC412A"/>
<path fill-rule="evenodd" clip-rule="evenodd" d="M135.547 7.14423V13.0041L136.598 13.4255L136.101 14.5813L135.061 14.1633C134.827 14.0653 134.669 13.9159 134.549 13.7472C134.433 13.5745 134.348 13.3386 134.348 13.0202V7.14423H135.547ZM127.572 11.4994C127.598 9.82369 129.025 8.48604 130.757 8.51171C132.226 8.534 133.444 9.52947 133.764 10.8535L128.079 13.2028C127.749 12.7147 127.562 12.1275 127.572 11.4994ZM128.872 11.7344C128.865 11.6641 128.859 11.592 128.861 11.5193C128.877 10.532 129.718 9.74418 130.738 9.76054C131.293 9.76771 131.786 10.0136 132.12 10.3942L128.872 11.7344ZM132 12.8223C131.657 13.1445 131.192 13.3409 130.679 13.3338C130.328 13.3281 130.002 13.2263 129.725 13.0567L129.038 14.1148C129.509 14.4023 130.063 14.5723 130.661 14.5813C131.531 14.5938 132.324 14.2632 132.901 13.7174L132 12.8223ZM139.924 9.76044C139.719 9.76044 139.522 9.79245 139.338 9.85215L138.929 8.6665C139.241 8.56566 139.576 8.51089 139.924 8.51089C141.443 8.51089 142.71 9.55414 143 10.94L141.733 11.1897C141.563 10.3741 140.817 9.76044 139.924 9.76044ZM137.844 13.8198L138.7 12.8839C138.318 12.5566 138.077 12.0787 138.077 11.546C138.077 11.0138 138.318 10.5361 138.699 10.2091L137.843 9.27323C137.194 9.82929 136.785 10.6418 136.785 11.546C136.785 12.4513 137.194 13.2635 137.844 13.8198ZM139.924 13.3322C140.817 13.3322 141.562 12.7191 141.733 11.9047L143 12.1554C142.708 13.5398 141.441 14.5816 139.924 14.5816C139.575 14.5816 139.241 14.5267 138.927 14.4254L139.338 13.2401C139.522 13.2996 139.719 13.3322 139.924 13.3322Z" fill="black"/>
<defs>
<clipPath id="clip0">
<rect width="38.3333" height="12.0476" fill="white" transform="translate(0 5)"/>
</clipPath>
</defs>
</svg>
