<svg width="102" height="20" viewBox="0 0 102 20" fill="none" xmlns="http://www.w3.org/2000/svg">
<path d="M0 13.4V2C0 0.895431 0.89543 0 2 0H100C101.105 0 102 0.895431 102 2V13.4C102 14.5046 101.105 15.4 100 15.4H16.367C15.7757 15.4 15.2147 15.6617 14.8347 16.1147L12.2691 19.1733C11.4698 20.1262 10.0039 20.1262 9.20454 19.1733L6.63896 16.1147C6.25895 15.6617 5.69796 15.4 5.10666 15.4H2C0.895431 15.4 0 14.5046 0 13.4Z" fill="#FFA000"/>
<path d="M8.21157 11.108C10.1916 11.108 11.6586 9.731 11.6586 7.85C11.6586 5.969 10.1916 4.592 8.21157 4.592C6.22257 4.592 4.76457 5.978 4.76457 7.85C4.76457 9.722 6.22257 11.108 8.21157 11.108ZM8.21157 9.866C7.08657 9.866 6.24057 9.047 6.24057 7.85C6.24057 6.653 7.08657 5.834 8.21157 5.834C9.33657 5.834 10.1826 6.653 10.1826 7.85C10.1826 9.047 9.33657 9.866 8.21157 9.866ZM22.4042 11L22.3862 4.7H21.1892L18.8672 8.615L16.5092 4.7H15.3032V11H16.6712V7.301L18.5162 10.334H19.1732L21.0272 7.22L21.0362 11H22.4042ZM28.6059 11H30.1359L27.3189 4.7H25.8789L23.0709 11H24.5649L25.1229 9.65H28.0479L28.6059 11ZM25.5909 8.543L26.5899 6.131L27.5889 8.543H25.5909ZM30.7895 11H32.2475V4.7H30.7895V11ZM35.8126 11.108C37.6126 11.108 38.4856 10.208 38.4856 9.155C38.4856 6.842 34.8226 7.643 34.8226 6.482C34.8226 6.086 35.1556 5.762 36.0196 5.762C36.5776 5.762 37.1806 5.924 37.7656 6.257L38.2156 5.15C37.6306 4.781 36.8206 4.592 36.0286 4.592C34.2376 4.592 33.3736 5.483 33.3736 6.554C33.3736 8.894 37.0366 8.084 37.0366 9.263C37.0366 9.65 36.6856 9.938 35.8216 9.938C35.0656 9.938 34.2736 9.668 33.7426 9.281L33.2476 10.379C33.8056 10.811 34.8136 11.108 35.8126 11.108ZM45.0457 11.108C46.1437 11.108 47.0527 10.712 47.6467 9.983L46.7107 9.119C46.2877 9.614 45.7567 9.866 45.1267 9.866C43.9477 9.866 43.1107 9.038 43.1107 7.85C43.1107 6.662 43.9477 5.834 45.1267 5.834C45.7567 5.834 46.2877 6.086 46.7107 6.572L47.6467 5.708C47.0527 4.988 46.1437 4.592 45.0547 4.592C43.0927 4.592 41.6347 5.951 41.6347 7.85C41.6347 9.749 43.0927 11.108 45.0457 11.108ZM51.5504 11.108C53.5304 11.108 54.9974 9.731 54.9974 7.85C54.9974 5.969 53.5304 4.592 51.5504 4.592C49.5614 4.592 48.1034 5.978 48.1034 7.85C48.1034 9.722 49.5614 11.108 51.5504 11.108ZM51.5504 9.866C50.4254 9.866 49.5794 9.047 49.5794 7.85C49.5794 6.653 50.4254 5.834 51.5504 5.834C52.6754 5.834 53.5214 6.653 53.5214 7.85C53.5214 9.047 52.6754 9.866 51.5504 9.866ZM63.1942 11L63.1762 4.7H61.9792L59.6572 8.615L57.2992 4.7H56.0932V11H57.4612V7.301L59.3062 10.334H59.9632L61.8172 7.22L61.8262 11H63.1942ZM67.4159 4.7H64.6889V11H66.1469V9.263H67.4159C69.0989 9.263 70.1519 8.39 70.1519 6.986C70.1519 5.573 69.0989 4.7 67.4159 4.7ZM67.3349 8.075H66.1469V5.888H67.3349C68.2259 5.888 68.6759 6.293 68.6759 6.986C68.6759 7.67 68.2259 8.075 67.3349 8.075ZM71.1928 11H75.8098V9.812H72.6508V4.7H71.1928V11ZM78.0734 9.83V8.372H80.9984V7.238H78.0734V5.87H81.3854V4.7H76.6244V11H81.5024V9.83H78.0734ZM83.9675 11H85.4255V5.888H87.4415V4.7H81.9515V5.888H83.9675V11ZM91.1891 11.108C93.1691 11.108 94.6361 9.731 94.6361 7.85C94.6361 5.969 93.1691 4.592 91.1891 4.592C89.2001 4.592 87.7421 5.978 87.7421 7.85C87.7421 9.722 89.2001 11.108 91.1891 11.108ZM91.1891 9.866C90.0641 9.866 89.2181 9.047 89.2181 7.85C89.2181 6.653 90.0641 5.834 91.1891 5.834C92.3141 5.834 93.1601 6.653 93.1601 7.85C93.1601 9.047 92.3141 9.866 91.1891 9.866ZM95.7319 8.813H96.8479L97.1269 4.7H95.4529L95.7319 8.813ZM96.2899 11.072C96.7939 11.072 97.1539 10.703 97.1539 10.253C97.1539 9.794 96.7939 9.452 96.2899 9.452C95.7859 9.452 95.4259 9.794 95.4259 10.253C95.4259 10.703 95.7859 11.072 96.2899 11.072Z" fill="white"/>
</svg>
