<svg width="14" height="14" viewBox="0 0 14 14" fill="none" xmlns="http://www.w3.org/2000/svg">
<path d="M7.00008 1.16666C3.77425 1.16666 1.16675 3.77416 1.16675 7C1.16675 10.2258 3.77425 12.8333 7.00008 12.8333C10.2259 12.8333 12.8334 10.2258 12.8334 7C12.8334 3.77416 10.2259 1.16666 7.00008 1.16666ZM9.50842 9.50833C9.28092 9.73583 8.91342 9.73583 8.68592 9.50833L7.00008 7.8225L5.31425 9.50833C5.08675 9.73583 4.71925 9.73583 4.49175 9.50833C4.26425 9.28083 4.26425 8.91333 4.49175 8.68583L6.17758 7L4.49175 5.31416C4.26425 5.08666 4.26425 4.71916 4.49175 4.49166C4.71925 4.26416 5.08675 4.26416 5.31425 4.49166L7.00008 6.1775L8.68592 4.49166C8.91342 4.26416 9.28092 4.26416 9.50842 4.49166C9.73592 4.71916 9.73592 5.08666 9.50842 5.31416L7.82258 7L9.50842 8.68583C9.73008 8.9075 9.73008 9.28083 9.50842 9.50833Z" fill="#323232"/>
</svg>
