<svg width="47" height="30" viewBox="0 0 47 30" fill="none" xmlns="http://www.w3.org/2000/svg">
<g filter="url(#filter0_d)">
<rect x="2" width="42.8369" height="25.7021" rx="5" fill="white"/>
<rect x="2.5" y="0.5" width="41.8369" height="24.7021" rx="4.5" stroke="#DADADA"/>
</g>
<path d="M13.5916 9.77531C13.8997 9.67429 14.2293 9.61945 14.5723 9.61945C16.069 9.61945 17.3174 10.6624 17.6038 12.0478L19.7247 11.6236C19.238 9.26894 17.1164 7.49646 14.5723 7.49646C13.9898 7.49646 13.4291 7.58954 12.9058 7.76102L13.5916 9.77531Z" fill="#FECA2F"/>
<path d="M11.0677 16.5992L12.3376 14.9595C11.7707 14.3862 11.4129 13.5491 11.4129 12.6161C11.4129 11.6838 11.7704 10.8467 12.3371 10.2738L11.0665 8.63431C10.1033 9.60841 9.49634 11.0313 9.49634 12.6161C9.49634 14.2017 10.1042 15.6251 11.0677 16.5992Z" fill="#1BA7DE"/>
<path d="M17.6045 13.1856C17.3171 14.5709 16.0694 15.6125 14.5741 15.6125C14.231 15.6125 13.9007 15.5575 13.5926 15.4562L12.9058 17.4715C13.4299 17.6438 13.9908 17.737 14.5741 17.737C17.1159 17.737 19.2361 15.9657 19.7247 13.612L17.6045 13.1856Z" fill="#EC412A"/>
<path fill-rule="evenodd" clip-rule="evenodd" d="M29.929 8.63431V14.4615L30.9747 14.8806L30.48 16.03L29.4459 15.6143C29.2134 15.5168 29.056 15.3682 28.9365 15.2004C28.8217 15.0288 28.7366 14.7941 28.7366 14.4775V8.63431H29.929ZM21.9982 12.9652C22.0242 11.2988 23.4433 9.96865 25.1653 9.99417C26.6268 10.0163 27.8378 11.0063 28.1559 12.3229L22.5031 14.6592C22.1747 14.1738 21.9881 13.5898 21.9982 12.9652ZM23.2916 13.1989C23.2838 13.1289 23.2783 13.0573 23.2804 12.9849C23.2966 12.0031 24.1321 11.2197 25.1467 11.236C25.6989 11.2431 26.1893 11.4877 26.5207 11.8661L23.2916 13.1989ZM26.4017 14.2807C26.0611 14.6012 25.5991 14.7964 25.0889 14.7894C24.7393 14.7837 24.4153 14.6825 24.1399 14.5139L23.457 15.566C23.9247 15.8519 24.4761 16.021 25.0706 16.0299C25.936 16.0424 26.7247 15.7136 27.2982 15.1709L26.4017 14.2807ZM34.2811 11.2359C34.0775 11.2359 33.8817 11.2678 33.6988 11.3271L33.2919 10.1481C33.6025 10.0478 33.935 9.99334 34.2811 9.99334C35.7915 9.99334 37.0514 11.0308 37.3403 12.4089L36.0808 12.6572C35.911 11.8461 35.1698 11.2359 34.2811 11.2359ZM32.2132 15.2726L33.0643 14.342C32.6842 14.0165 32.4448 13.5413 32.4448 13.0115C32.4448 12.4823 32.6842 12.0073 33.064 11.6821L32.2123 10.7514C31.5666 11.3044 31.1597 12.1124 31.1597 13.0115C31.1597 13.9118 31.5669 14.7195 32.2132 15.2726ZM34.2811 14.7878C35.169 14.7878 35.9101 14.1781 36.0808 13.3682L37.34 13.6176C37.0497 14.9942 35.7901 16.0303 34.2811 16.0303C33.9347 16.0303 33.6017 15.9756 33.2903 15.8749L33.6982 14.6962C33.8814 14.7554 34.0773 14.7878 34.2811 14.7878Z" fill="black"/>
<defs>
<filter id="filter0_d" x="0" y="0" width="46.8369" height="29.7021" filterUnits="userSpaceOnUse" color-interpolation-filters="sRGB">
<feFlood flood-opacity="0" result="BackgroundImageFix"/>
<feColorMatrix in="SourceAlpha" type="matrix" values="0 0 0 0 0 0 0 0 0 0 0 0 0 0 0 0 0 0 127 0"/>
<feMorphology radius="1" operator="dilate" in="SourceAlpha" result="effect1_dropShadow"/>
<feOffset dy="2"/>
<feGaussianBlur stdDeviation="0.5"/>
<feColorMatrix type="matrix" values="0 0 0 0 0 0 0 0 0 0 0 0 0 0 0 0 0 0 0.25 0"/>
<feBlend mode="normal" in2="BackgroundImageFix" result="effect1_dropShadow"/>
<feBlend mode="normal" in="SourceGraphic" in2="effect1_dropShadow" result="shape"/>
</filter>
</defs>
</svg>
