<svg width="47" height="30" viewBox="0 0 47 30" fill="none" xmlns="http://www.w3.org/2000/svg">
<g filter="url(#filter0_d)">
<rect x="2" width="42.8369" height="25.7021" rx="5" fill="white"/>
<rect x="2.5" y="0.5" width="41.8369" height="24.7021" rx="4.5" stroke="#DADADA"/>
</g>
<g clip-path="url(#clip0)">
<path d="M14.6 15.2812H16.0134V11.2035H14.6V15.2812ZM16.4847 8.43545H15.5425V9.37445H16.4847V8.43545ZM11.1784 8.90513H9.83896V10.0914H11.1055C11.9085 10.0914 12.3649 10.4803 12.3649 11.1898C12.3649 11.9175 11.9085 12.3156 11.1055 12.3156H9.83896V10.0914H8.42554V15.2812H9.83896V13.5019H11.1784C12.8031 13.5019 13.7341 12.6226 13.7341 11.1397C13.7341 9.72995 12.8031 8.90513 11.1784 8.90513ZM17.4268 7.49646H14.6V10.3138H17.4268V7.49646ZM16.9556 9.84413H15.0709V7.96614H16.9556V9.84413ZM25.1876 8.90513H23.8988V10.0914H25.1147C25.9178 10.0914 26.3742 10.4803 26.3742 11.1898C26.3742 11.9175 25.9178 12.3156 25.1147 12.3156H23.8988V10.0914H22.4854V15.2812H23.8988V13.5019H25.1876C26.8123 13.5019 27.7433 12.6226 27.7433 11.1397C27.7433 9.72995 26.8123 8.90513 25.1876 8.90513ZM36.9685 10.3879L35.7627 13.4262L34.5594 10.3879H33.1084L35.0307 15.2705L34.2905 17.1348H35.7623L38.4114 10.3879H36.9685ZM30.6621 10.3705C29.804 10.3705 29.1742 10.5707 28.4441 10.9344L28.8823 11.8986C29.3933 11.6165 29.9096 11.4711 30.3478 11.4711C31.0232 11.4711 31.3751 11.7714 31.3751 12.29V12.3898H30.0141C28.8094 12.3898 28.1432 12.9402 28.1432 13.8592C28.1432 14.7508 28.7826 15.3854 29.8322 15.3854C30.5166 15.3854 31.0035 15.1559 31.3755 14.7463V15.2812H32.7524L32.7435 12.1073C32.7338 11.0067 31.9762 10.3705 30.6621 10.3705ZM31.4867 13.6453C31.3379 14.0638 30.934 14.3823 30.3407 14.3823C29.8661 14.3823 29.5715 14.135 29.5715 13.7621C29.5715 13.371 29.8337 13.2053 30.3723 13.2053H31.4867V13.6453ZM19.5763 14.2095C18.892 14.2095 18.408 13.6728 18.408 12.8813C18.408 12.0991 18.892 11.5712 19.5763 11.5712C20.0603 11.562 20.4344 11.7621 20.6989 12.0899L21.6481 11.4078C21.21 10.7527 20.4616 10.3798 19.5213 10.3798C18.0153 10.3798 17.0021 11.3896 17.0021 12.8906C17.0021 14.3734 18.0153 15.3739 19.5031 15.3739C20.507 15.3739 21.2739 14.9736 21.6846 14.2915L20.7171 13.6364C20.4705 14.0186 20.0781 14.2095 19.5763 14.2095Z" fill="#DADADA"/>
</g>
<defs>
<filter id="filter0_d" x="0" y="0" width="46.8369" height="29.7021" filterUnits="userSpaceOnUse" color-interpolation-filters="sRGB">
<feFlood flood-opacity="0" result="BackgroundImageFix"/>
<feColorMatrix in="SourceAlpha" type="matrix" values="0 0 0 0 0 0 0 0 0 0 0 0 0 0 0 0 0 0 127 0"/>
<feMorphology radius="1" operator="dilate" in="SourceAlpha" result="effect1_dropShadow"/>
<feOffset dy="2"/>
<feGaussianBlur stdDeviation="0.5"/>
<feColorMatrix type="matrix" values="0 0 0 0 0 0 0 0 0 0 0 0 0 0 0 0 0 0 0.25 0"/>
<feBlend mode="normal" in2="BackgroundImageFix" result="effect1_dropShadow"/>
<feBlend mode="normal" in="SourceGraphic" in2="effect1_dropShadow" result="shape"/>
</filter>
<clipPath id="clip0">
<rect width="29.9858" height="9.6383" fill="white" transform="translate(8.42554 7.49646)"/>
</clipPath>
</defs>
</svg>
