<svg width="47" height="30" viewBox="0 0 47 30" fill="none" xmlns="http://www.w3.org/2000/svg">
<g filter="url(#filter0_d)">
<rect x="2" width="42.8369" height="25.7021" rx="5" fill="white"/>
<rect x="2.5" y="0.5" width="41.8369" height="24.7021" rx="4.5" stroke="#DADADA"/>
</g>
<path fill-rule="evenodd" clip-rule="evenodd" d="M16.9396 16.8759H14.7338L13.0797 10.3798C13.0012 10.081 12.8345 9.81679 12.5893 9.69228C11.9773 9.37939 11.303 9.13037 10.5674 9.00478V8.75468H14.1208C14.6112 8.75468 14.979 9.13037 15.0403 9.56669L15.8986 14.2525L18.1033 8.75468H20.2478L16.9396 16.8759ZM21.4739 16.8759H19.3907L21.1061 8.75468H23.1893L21.4739 16.8759ZM25.8845 11.0045C25.9458 10.5671 26.3136 10.317 26.7428 10.317C27.4171 10.2542 28.1517 10.3798 28.7647 10.6916L29.1325 8.94307C28.5195 8.69297 27.8451 8.56738 27.2332 8.56738C25.2113 8.56738 23.74 9.69229 23.74 11.2535C23.74 12.4412 24.7822 13.0648 25.5178 13.4405C26.3136 13.8151 26.6202 14.0652 26.5589 14.4398C26.5589 15.0017 25.9458 15.2518 25.3339 15.2518C24.5982 15.2518 23.8626 15.0645 23.1894 14.7516L22.8215 16.5013C23.5572 16.8131 24.353 16.9387 25.0887 16.9387C27.3558 17.0004 28.7647 15.8766 28.7647 14.1897C28.7647 12.0655 25.8845 11.941 25.8845 11.0045ZM36.0553 16.8759L34.4012 8.75468H32.6245C32.2567 8.75468 31.8888 9.00478 31.7662 9.37939L28.7032 16.8759H30.8478L31.2758 15.6892H33.9108L34.156 16.8759H36.0553ZM32.9311 10.9417L33.543 14.0024H31.8276L32.9311 10.9417Z" fill="#DADADA"/>
<defs>
<filter id="filter0_d" x="0" y="0" width="46.8369" height="29.7021" filterUnits="userSpaceOnUse" color-interpolation-filters="sRGB">
<feFlood flood-opacity="0" result="BackgroundImageFix"/>
<feColorMatrix in="SourceAlpha" type="matrix" values="0 0 0 0 0 0 0 0 0 0 0 0 0 0 0 0 0 0 127 0"/>
<feMorphology radius="1" operator="dilate" in="SourceAlpha" result="effect1_dropShadow"/>
<feOffset dy="2"/>
<feGaussianBlur stdDeviation="0.5"/>
<feColorMatrix type="matrix" values="0 0 0 0 0 0 0 0 0 0 0 0 0 0 0 0 0 0 0.25 0"/>
<feBlend mode="normal" in2="BackgroundImageFix" result="effect1_dropShadow"/>
<feBlend mode="normal" in="SourceGraphic" in2="effect1_dropShadow" result="shape"/>
</filter>
</defs>
</svg>
